<?xml version="1.0" encoding="UTF-8"?>
<svg id="TEXT" xmlns="http://www.w3.org/2000/svg" viewBox="0 0 250.88 270.67">
  <defs>
    <style>
      .cls-1 {
        fill: #ee1d52;
      }

      .cls-1, .cls-2, .cls-3 {
        fill-rule: evenodd;
        stroke-width: 0px;
      }

      .cls-2 {
        fill: #69c9d0;
      }
    </style>
  </defs>
  <path class="cls-1" d="m169.83,108.8c13.43,9.6,29.89,15.24,47.66,15.24v-34.18c-3.36,0-6.72-.35-10.01-1.05v26.91c-17.77,0-34.22-5.65-47.66-15.24v69.75c0,34.89-28.3,63.18-63.21,63.18-13.03,0-25.13-3.94-35.19-10.69,11.48,11.73,27.49,19.01,45.2,19.01,34.91,0,63.22-28.29,63.22-63.18v-69.75h0Zm12.35-34.49c-6.86-7.49-11.37-17.18-12.35-27.89v-4.4h-9.48c2.39,13.61,10.53,25.24,21.83,32.29h0Zm-98.68,121.64c-3.83-5.03-5.91-11.17-5.9-17.5,0-15.96,12.95-28.9,28.92-28.9,2.98,0,5.93.45,8.77,1.35v-34.94c-3.31-.45-6.66-.65-10-.58v27.2c-2.84-.9-5.8-1.36-8.78-1.35-15.97,0-28.92,12.94-28.92,28.9,0,11.29,6.47,21.06,15.91,25.82Z"/>
  <path class="cls-3" d="m159.82,100.47c13.44,9.6,29.89,15.24,47.66,15.24v-26.91c-9.92-2.11-18.7-7.29-25.3-14.5-11.3-7.05-19.44-18.68-21.83-32.29h-24.91v136.52c-.06,15.92-12.98,28.8-28.92,28.8-9.39,0-17.74-4.47-23.02-11.4-9.44-4.76-15.91-14.53-15.91-25.82,0-15.96,12.94-28.9,28.92-28.9,3.06,0,6.01.48,8.77,1.35v-27.2c-34.3.71-61.88,28.72-61.88,63.17,0,17.2,6.87,32.78,18.02,44.17,10.06,6.75,22.17,10.69,35.19,10.69,34.91,0,63.21-28.29,63.21-63.18v-69.76Z"/>
  <path class="cls-2" d="m207.48,88.81v-7.28c-8.94.01-17.71-2.49-25.3-7.23,6.72,7.35,15.56,12.42,25.3,14.5Zm-47.13-46.79c-.23-1.3-.4-2.61-.52-3.93v-4.4h-34.4v136.53c-.05,15.91-12.98,28.8-28.92,28.8-4.68,0-9.1-1.11-13.01-3.08,5.28,6.93,13.63,11.4,23.02,11.4,15.93,0,28.86-12.89,28.92-28.8V42.02h24.91Zm-55.06,73.36v-7.75c-2.87-.39-5.77-.59-8.67-.59-34.91,0-63.22,28.29-63.22,63.18,0,21.88,11.12,41.15,28.03,52.49-11.15-11.39-18.02-26.98-18.02-44.18,0-34.45,27.58-62.46,61.88-63.16h0Z"/>
</svg>