<?xml version="1.0" encoding="UTF-8"?>
<svg id="TEXT" xmlns="http://www.w3.org/2000/svg" viewBox="0 0 250.88 270.67">
  <defs>
    <style>
      .cls-1 {
        fill-rule: evenodd;
      }

      .cls-1, .cls-2 {
        fill: #00d95f;
        stroke-width: 0px;
      }
    </style>
  </defs>
  <path class="cls-2" d="m28.88,234.36l14.66-54.68c-8.3-14.97-12.66-31.75-12.66-48.78,0-55.67,45.29-100.96,100.96-100.96s100.97,45.29,100.97,100.96-45.29,100.97-100.97,100.97c-16.71,0-33.22-4.22-47.99-12.23l-54.96,14.72Zm57.7-35.22l3.46,2.06c12.71,7.57,27.16,11.58,41.8,11.58,45.15,0,81.88-36.73,81.88-81.88s-36.73-81.88-81.88-81.88-81.88,36.73-81.88,81.88c0,14.91,4.14,29.59,11.97,42.45l2.12,3.49-8.18,30.53,30.7-8.23Z"/>
  <path class="cls-1" d="m169.39,144.95c-4.16-2.49-9.56-5.26-14.46-3.26-3.76,1.54-6.15,7.42-8.59,10.42-1.25,1.54-2.74,1.78-4.66,1.01-14.1-5.61-24.9-15.03-32.68-28-1.32-2.02-1.08-3.6.51-5.47,2.35-2.77,5.3-5.91,5.94-9.64.64-3.73-1.11-8.09-2.66-11.41-1.97-4.24-4.17-10.29-8.42-12.7-3.91-2.21-9.06-.97-12.54,1.86-6.01,4.89-8.91,12.56-8.82,20.16.02,2.16.29,4.31.79,6.4,1.21,5.01,3.53,9.69,6.14,14.14,1.97,3.35,4.1,6.61,6.41,9.74,7.54,10.24,16.92,19.15,27.79,25.8,5.43,3.32,11.27,6.24,17.33,8.24,6.79,2.24,12.84,4.58,20.17,3.19,7.68-1.46,15.24-6.21,18.29-13.61.9-2.19,1.35-4.63.85-6.94-1.04-4.78-7.52-7.63-11.39-9.94Z"/>
</svg>